<mxfile host="Electron" agent="Mozilla/5.0 (Windows NT 10.0; Win64; x64) AppleWebKit/537.36 (KHTML, like Gecko) draw.io/26.0.9 Chrome/128.0.6613.186 Electron/32.2.5 Safari/537.36" version="26.0.9">
  <diagram name="Page-1" id="cF-Xf19YMa7j4efHGjGy">
    <mxGraphModel dx="1816" dy="577" grid="1" gridSize="10" guides="1" tooltips="1" connect="1" arrows="1" fold="1" page="1" pageScale="1" pageWidth="827" pageHeight="1169" math="0" shadow="0">
      <root>
        <mxCell id="0" />
        <mxCell id="1" parent="0" />
        <mxCell id="saed3StS2aJ-xDXOkhul-1" value="Bouteille" style="swimlane;fontStyle=1;align=center;verticalAlign=top;childLayout=stackLayout;horizontal=1;startSize=26;horizontalStack=0;resizeParent=1;resizeParentMax=0;resizeLast=0;collapsible=1;marginBottom=0;whiteSpace=wrap;html=1;" vertex="1" parent="1">
          <mxGeometry x="-100" y="160" width="160" height="204" as="geometry" />
        </mxCell>
        <mxCell id="saed3StS2aJ-xDXOkhul-2" value="-litre : double&amp;nbsp;&lt;div&gt;-marque : chaine&lt;/div&gt;&lt;div&gt;-cout : chaine&lt;/div&gt;&lt;div&gt;-ingredient: chaine&lt;/div&gt;&lt;div&gt;-conteneur : chaine&amp;nbsp;&lt;/div&gt;&lt;div&gt;-prix : double&amp;nbsp;&lt;/div&gt;" style="text;strokeColor=none;fillColor=none;align=left;verticalAlign=top;spacingLeft=4;spacingRight=4;overflow=hidden;rotatable=0;points=[[0,0.5],[1,0.5]];portConstraint=eastwest;whiteSpace=wrap;html=1;" vertex="1" parent="saed3StS2aJ-xDXOkhul-1">
          <mxGeometry y="26" width="160" height="144" as="geometry" />
        </mxCell>
        <mxCell id="saed3StS2aJ-xDXOkhul-3" value="" style="line;strokeWidth=1;fillColor=none;align=left;verticalAlign=middle;spacingTop=-1;spacingLeft=3;spacingRight=3;rotatable=0;labelPosition=right;points=[];portConstraint=eastwest;strokeColor=inherit;" vertex="1" parent="saed3StS2aJ-xDXOkhul-1">
          <mxGeometry y="170" width="160" height="8" as="geometry" />
        </mxCell>
        <mxCell id="saed3StS2aJ-xDXOkhul-4" value="+ method(type): type" style="text;strokeColor=none;fillColor=none;align=left;verticalAlign=top;spacingLeft=4;spacingRight=4;overflow=hidden;rotatable=0;points=[[0,0.5],[1,0.5]];portConstraint=eastwest;whiteSpace=wrap;html=1;" vertex="1" parent="saed3StS2aJ-xDXOkhul-1">
          <mxGeometry y="178" width="160" height="26" as="geometry" />
        </mxCell>
      </root>
    </mxGraphModel>
  </diagram>
</mxfile>
